<mxfile host="app.diagrams.net" modified="2023-04-21T01:50:24.003Z" agent="Mozilla/5.0 (Windows NT 10.0; Win64; x64) AppleWebKit/537.36 (KHTML, like Gecko) Chrome/112.0.0.0 Safari/537.36" version="21.2.1" etag="2B3tCklAQsSRGc_HNJtK" type="github">
  <diagram name="Page-1" id="53VBf5DB4hR7X-VDw6vY">
    <mxGraphModel>
      <root>
        <mxCell id="0" />
        <mxCell id="1" parent="0" />
      </root>
    </mxGraphModel>
  </diagram>
</mxfile>
